The lavishly produced and stylish crime thriller Boca - directed by Brazilian filmmaker Flavio Frederico and based on the autobiography of Hiroito, 'The King of Boca do Lixo' - makes for enjoyable viewing. Set amidst the brothels and nightclubs of 1950's São Paulo, Hiroito (Daniel de Oliveira) rises to become one the region's most notorious crime lords, trading in women, drugs and guns. After the death of his father - a crime Hiroito was arrested for but never charged - the self-styled kingpin begins to establish his empire, but soon comes unstuck to drugs and women.

There is a clearly a strong level of brutal honesty by the real Hiroito in what he reveals in his autobiography, and consequently Frederico's film. Boca follows the traditional pattern of crime films, in that those who do wrong must have their comeuppance - shown most expertly in Coppola's Godfather Trilogy. This generic formula is handled well throughout, with the opening scenes showing the lead character at the time of his fall from power.

   General
      Complete name :
      Format : Matroska
      File size : 4.37 GiB
      Duration : 1h 37mn
      Overall bit rate : 6 400 Kbps
      Encoded date : UTC 2012-02-15 15:31:12
      Writing application : mkvmerge v5.2.1 ('A Far Off Place') built on Jan  2 2012 23:21:10
      Writing library : libebml v1.2.3 + libmatroska v1.3.0
   Video #1
      ID : 1
      Format : AVC
      Format/Info : Advanced Video Codec
      Format profile : High@L4.1
      Format settings, CABAC : Yes
      Format settings, ReFrames : 5 frames
      Muxing mode : Container profile=Unknown@4.1
      Codec ID : V_MPEG4/ISO/AVC
      Duration : 1h 37mn
      Bit rate : 4 763 Kbps
      Nominal bit rate : 4 892 Kbps
      Width : 1 280 pixels
      Height : 720 pixels
      Display aspect ratio : 16:9
      Frame rate : 23.976 fps
      Resolution : 24 bits
      Colorimetry : 4:2:0
      Scan type : Progressive
      Bits/(Pixel*Frame) : 0.216
      Stream size : 3.25 GiB (74%)
      Writing library : x264 core 120 r2164 da19765
   Audio #2
      ID : 2
      Format : DTS
      Format/Info : Digital Theater Systems
      Codec ID : A_DTS
      Duration : 1h 37mn
      Bit rate mode : Constant
      Bit rate : 1 510 Kbps
      Channel(s) : 6 channels
      Channel positions : Front: L C R, Surround: L R, LFE
      Sampling rate : 48.0 KHz
      Resolution : 16 bits
      Stream size : 1.03 GiB (24%)
   Text #3
      ID : 3
      Format : UTF-8
      Codec ID : S_TEXT/UTF8
      Codec ID/Info : UTF-8 Plain Text
      Title : English
 
http://www.imdb.com/title/tt1827372/

Language: Portuguese
Subtitles: English (muxed in mkv)